<svg width="64" height="64" viewBox="0 0 64 64" fill="none" xmlns="http://www.w3.org/2000/svg" role="img" aria-label="WECARE heart favicon">
  <defs>
    <linearGradient id="heartGrad" x1="0" y1="0" x2="1" y2="1">
      <stop offset="0" stop-color="#0f766e"/>
      <stop offset="0.55" stop-color="#0ea5e9"/>
      <stop offset="1" stop-color="#22c55e"/>
    </linearGradient>
  </defs>
  <rect x="4" y="4" width="56" height="56" rx="16" fill="#0f172a"/>
  <path d="M32 46c-1.1 0-2.2-.4-3-1.2-8.5-7.7-14-12.8-14-20 0-6.2 4.6-10.8 10.6-10.8 2.6 0 5.1 1.1 6.4 3.1 1.3-2 3.8-3.1 6.4-3.1 6 0 10.6 4.6 10.6 10.8 0 7.2-5.5 12.3-14 20-.8.8-1.9 1.2-3 1.2z" fill="url(#heartGrad)"/>
  <path d="M32 42.5c-6.9-6.3-11.5-10.6-11.5-17.5 0-4.3 3.1-7.4 7.4-7.4 2.6 0 4.9 1.4 6.1 3.6 1.1-2.2 3.5-3.6 6.1-3.6 4.3 0 7.4 3.1 7.4 7.4 0 6.9-4.6 11.2-11.5 17.5-1 .9-2.6.9-3.6 0z" fill="rgba(255,255,255,0.25)"/>
</svg>
