<svg width="64" height="64" viewBox="0 0 64 64" fill="none" xmlns="http://www.w3.org/2000/svg" role="img" aria-label="WECARE Hub favicon">
  <defs>
    <linearGradient id="favGradient" x1="0" y1="0" x2="1" y2="1">
      <stop offset="0" stop-color="#0f766e"/>
      <stop offset="0.55" stop-color="#0ea5e9"/>
      <stop offset="1" stop-color="#22c55e"/>
    </linearGradient>
  </defs>
  <rect x="6" y="6" width="52" height="52" rx="16" fill="url(#favGradient)"/>
  <path d="M32 46c-1.1 0-2.2-.4-3-1.2-8.5-7.7-14-12.8-14-20 0-6.2 4.6-10.8 10.6-10.8 2.6 0 5.1 1.1 6.4 3.1 1.3-2 3.8-3.1 6.4-3.1 6 0 10.6 4.6 10.6 10.8 0 7.2-5.5 12.3-14 20-.8.8-1.9 1.2-3 1.2z" fill="#ffffff"/>
  <rect x="30" y="23" width="4" height="18" rx="2" fill="#0f172a"/>
  <rect x="23" y="30" width="18" height="4" rx="2" fill="#0f172a"/>
</svg>
