<svg width="64" height="64" viewBox="0 0 64 64" fill="none" xmlns="http://www.w3.org/2000/svg" role="img" aria-label="WECARE Hub logo">
  <defs>
    <linearGradient id="wecareGradient" x1="0" y1="0" x2="1" y2="1">
      <stop offset="0" stop-color="#0f766e"/>
      <stop offset="0.55" stop-color="#0ea5e9"/>
      <stop offset="1" stop-color="#22c55e"/>
    </linearGradient>
    <radialGradient id="wecareGlow" cx="0" cy="0" r="1" gradientUnits="userSpaceOnUse" gradientTransform="translate(18 16) rotate(45) scale(36)">
      <stop offset="0" stop-color="#ffffff" stop-opacity="0.45"/>
      <stop offset="1" stop-color="#ffffff" stop-opacity="0"/>
    </radialGradient>
  </defs>
  <rect x="4" y="4" width="56" height="56" rx="18" fill="url(#wecareGradient)"/>
  <rect x="8" y="8" width="48" height="48" rx="16" fill="url(#wecareGlow)"/>
  <path d="M32 46c-1.1 0-2.2-.4-3-1.2-8.5-7.7-14-12.8-14-20 0-6.2 4.6-10.8 10.6-10.8 2.6 0 5.1 1.1 6.4 3.1 1.3-2 3.8-3.1 6.4-3.1 6 0 10.6 4.6 10.6 10.8 0 7.2-5.5 12.3-14 20-.8.8-1.9 1.2-3 1.2z" fill="#ffffff" fill-opacity="0.9"/>
  <rect x="29" y="22" width="6" height="20" rx="3" fill="#0f172a" fill-opacity="0.9"/>
  <rect x="22" y="29" width="20" height="6" rx="3" fill="#0f172a" fill-opacity="0.9"/>
  <circle cx="46" cy="18" r="4" fill="#ffb454"/>
</svg>
